<svg width="745" height="149" viewBox="0 0 745 149" fill="none" xmlns="http://www.w3.org/2000/svg">
<path d="M174.196 116.018V141.473H170.368V119.3H158.387V141.473H154.559V116.018H174.196ZM179.771 148.632V122.382H183.4V125.477H183.711C183.926 125.079 184.237 124.619 184.643 124.097C185.049 123.575 185.612 123.12 186.333 122.73C187.054 122.332 188.007 122.134 189.192 122.134C190.733 122.134 192.109 122.523 193.318 123.302C194.528 124.081 195.477 125.203 196.165 126.67C196.861 128.137 197.209 129.902 197.209 131.965C197.209 134.028 196.865 135.797 196.177 137.272C195.489 138.739 194.545 139.87 193.343 140.665C192.142 141.452 190.77 141.846 189.229 141.846C188.069 141.846 187.12 141.651 186.383 141.262C185.654 140.872 185.082 140.417 184.668 139.895C184.253 139.373 183.934 138.908 183.711 138.502H183.487V148.632H179.771ZM183.412 131.928C183.412 133.27 183.607 134.446 183.997 135.457C184.386 136.468 184.949 137.26 185.687 137.831C186.424 138.395 187.328 138.676 188.396 138.676C189.507 138.676 190.435 138.382 191.181 137.794C191.926 137.197 192.49 136.39 192.871 135.37C193.26 134.351 193.455 133.204 193.455 131.928C193.455 130.668 193.264 129.537 192.883 128.534C192.51 127.532 191.947 126.741 191.193 126.161C190.447 125.58 189.515 125.29 188.396 125.29C187.319 125.29 186.408 125.568 185.662 126.123C184.925 126.678 184.365 127.453 183.984 128.447C183.603 129.442 183.412 130.602 183.412 131.928ZM209.414 141.858C207.624 141.858 206.062 141.448 204.728 140.628C203.394 139.808 202.358 138.66 201.621 137.185C200.883 135.71 200.515 133.987 200.515 132.015C200.515 130.034 200.883 128.302 201.621 126.819C202.358 125.336 203.394 124.184 204.728 123.364C206.062 122.544 207.624 122.134 209.414 122.134C211.204 122.134 212.766 122.544 214.1 123.364C215.434 124.184 216.469 125.336 217.207 126.819C217.944 128.302 218.313 130.034 218.313 132.015C218.313 133.987 217.944 135.71 217.207 137.185C216.469 138.66 215.434 139.808 214.1 140.628C212.766 141.448 211.204 141.858 209.414 141.858ZM209.426 138.739C210.586 138.739 211.547 138.432 212.31 137.819C213.072 137.206 213.636 136.39 214 135.37C214.373 134.351 214.559 133.228 214.559 132.002C214.559 130.784 214.373 129.665 214 128.646C213.636 127.619 213.072 126.794 212.31 126.173C211.547 125.551 210.586 125.241 209.426 125.241C208.258 125.241 207.288 125.551 206.518 126.173C205.756 126.794 205.188 127.619 204.815 128.646C204.451 129.665 204.268 130.784 204.268 132.002C204.268 133.228 204.451 134.351 204.815 135.37C205.188 136.39 205.756 137.206 206.518 137.819C207.288 138.432 208.258 138.739 209.426 138.739ZM230.503 141.858C228.655 141.858 227.064 141.44 225.73 140.603C224.404 139.758 223.385 138.594 222.672 137.11C221.96 135.627 221.604 133.929 221.604 132.015C221.604 130.076 221.968 128.365 222.697 126.881C223.426 125.39 224.454 124.226 225.78 123.389C227.105 122.552 228.667 122.134 230.465 122.134C231.915 122.134 233.208 122.403 234.343 122.941C235.478 123.472 236.394 124.217 237.09 125.179C237.794 126.14 238.213 127.263 238.345 128.547H234.729C234.53 127.652 234.074 126.881 233.361 126.235C232.657 125.589 231.712 125.266 230.528 125.266C229.492 125.266 228.584 125.539 227.806 126.086C227.035 126.625 226.434 127.395 226.003 128.398C225.573 129.392 225.357 130.569 225.357 131.928C225.357 133.32 225.568 134.521 225.991 135.532C226.414 136.543 227.01 137.326 227.781 137.881C228.56 138.436 229.475 138.714 230.528 138.714C231.232 138.714 231.87 138.585 232.442 138.328C233.022 138.063 233.506 137.686 233.896 137.197C234.294 136.709 234.571 136.12 234.729 135.433H238.345C238.213 136.667 237.811 137.769 237.14 138.739C236.469 139.708 235.57 140.47 234.443 141.026C233.324 141.581 232.011 141.858 230.503 141.858ZM240.875 125.589V122.382H256.983V125.589H250.756V141.473H247.126V125.589H240.875ZM260.913 148.632V122.382H264.543V125.477H264.853C265.069 125.079 265.379 124.619 265.785 124.097C266.191 123.575 266.755 123.12 267.476 122.73C268.197 122.332 269.15 122.134 270.334 122.134C271.876 122.134 273.251 122.523 274.461 123.302C275.671 124.081 276.619 125.203 277.307 126.67C278.003 128.137 278.351 129.902 278.351 131.965C278.351 134.028 278.007 135.797 277.32 137.272C276.632 138.739 275.687 139.87 274.486 140.665C273.284 141.452 271.913 141.846 270.372 141.846C269.212 141.846 268.263 141.651 267.526 141.262C266.796 140.872 266.225 140.417 265.81 139.895C265.396 139.373 265.077 138.908 264.853 138.502H264.63V148.632H260.913ZM264.555 131.928C264.555 133.27 264.75 134.446 265.139 135.457C265.529 136.468 266.092 137.26 266.829 137.831C267.567 138.395 268.47 138.676 269.539 138.676C270.649 138.676 271.577 138.382 272.323 137.794C273.069 137.197 273.632 136.39 274.013 135.37C274.403 134.351 274.598 133.204 274.598 131.928C274.598 130.668 274.407 129.537 274.026 128.534C273.653 127.532 273.09 126.741 272.336 126.161C271.59 125.58 270.658 125.29 269.539 125.29C268.462 125.29 267.55 125.568 266.805 126.123C266.067 126.678 265.508 127.453 265.127 128.447C264.746 129.442 264.555 130.602 264.555 131.928ZM288.071 141.896C286.861 141.896 285.767 141.672 284.789 141.224C283.812 140.769 283.037 140.11 282.465 139.248C281.902 138.386 281.62 137.33 281.62 136.079C281.62 135.002 281.827 134.115 282.241 133.419C282.656 132.723 283.215 132.172 283.919 131.766C284.624 131.36 285.411 131.053 286.281 130.846C287.151 130.639 288.037 130.482 288.941 130.374C290.084 130.241 291.012 130.134 291.725 130.051C292.437 129.96 292.955 129.815 293.278 129.616C293.601 129.417 293.763 129.094 293.763 128.646V128.559C293.763 127.474 293.456 126.633 292.843 126.036C292.238 125.44 291.335 125.141 290.134 125.141C288.883 125.141 287.897 125.419 287.176 125.974C286.463 126.521 285.97 127.13 285.697 127.801L282.204 127.006C282.618 125.846 283.223 124.909 284.019 124.197C284.822 123.476 285.746 122.954 286.79 122.631C287.834 122.299 288.932 122.134 290.084 122.134C290.846 122.134 291.654 122.225 292.508 122.407C293.369 122.581 294.173 122.904 294.919 123.376C295.673 123.849 296.29 124.524 296.771 125.402C297.251 126.272 297.492 127.403 297.492 128.795V141.473H293.863V138.863H293.713C293.473 139.344 293.113 139.816 292.632 140.28C292.151 140.744 291.534 141.129 290.78 141.436C290.026 141.742 289.123 141.896 288.071 141.896ZM288.878 138.913C289.906 138.913 290.784 138.71 291.513 138.304C292.251 137.898 292.81 137.367 293.191 136.713C293.581 136.05 293.776 135.341 293.776 134.587V132.126C293.643 132.259 293.386 132.383 293.005 132.499C292.632 132.607 292.205 132.702 291.725 132.785C291.244 132.86 290.776 132.93 290.32 132.996C289.865 133.054 289.483 133.104 289.177 133.146C288.456 133.237 287.797 133.39 287.201 133.605C286.612 133.821 286.14 134.132 285.784 134.538C285.436 134.935 285.262 135.466 285.262 136.129C285.262 137.048 285.601 137.744 286.281 138.217C286.96 138.681 287.826 138.913 288.878 138.913ZM315.38 130.324V133.543H305.039V130.324H315.38ZM306.083 122.382V141.473H302.442V122.382H306.083ZM317.978 122.382V141.473H314.349V122.382H317.978ZM330.991 141.858C329.143 141.858 327.552 141.44 326.218 140.603C324.892 139.758 323.873 138.594 323.161 137.11C322.448 135.627 322.092 133.929 322.092 132.015C322.092 130.076 322.456 128.365 323.186 126.881C323.915 125.39 324.942 124.226 326.268 123.389C327.594 122.552 329.156 122.134 330.954 122.134C332.404 122.134 333.696 122.403 334.832 122.941C335.967 123.472 336.882 124.217 337.578 125.179C338.283 126.14 338.701 127.263 338.834 128.547H335.217C335.018 127.652 334.562 126.881 333.85 126.235C333.145 125.589 332.201 125.266 331.016 125.266C329.98 125.266 329.073 125.539 328.294 126.086C327.523 126.625 326.923 127.395 326.492 128.398C326.061 129.392 325.845 130.569 325.845 131.928C325.845 133.32 326.057 134.521 326.479 135.532C326.902 136.543 327.498 137.326 328.269 137.881C329.048 138.436 329.964 138.714 331.016 138.714C331.72 138.714 332.358 138.585 332.93 138.328C333.51 138.063 333.995 137.686 334.384 137.197C334.782 136.709 335.059 136.12 335.217 135.433H338.834C338.701 136.667 338.299 137.769 337.628 138.739C336.957 139.708 336.058 140.47 334.931 141.026C333.812 141.581 332.499 141.858 330.991 141.858ZM341.363 125.589V122.382H357.471V125.589H351.244V141.473H347.615V125.589H341.363ZM361.402 141.473V122.382H369.319C371.473 122.382 373.18 122.842 374.44 123.762C375.699 124.673 376.329 125.912 376.329 127.478C376.329 128.597 375.972 129.483 375.26 130.138C374.547 130.792 373.603 131.232 372.426 131.455C373.28 131.555 374.063 131.812 374.775 132.226C375.488 132.632 376.059 133.179 376.49 133.866C376.93 134.554 377.149 135.375 377.149 136.327C377.149 137.338 376.888 138.233 376.366 139.012C375.844 139.783 375.086 140.388 374.092 140.827C373.106 141.258 371.916 141.473 370.524 141.473H361.402ZM364.894 138.366H370.524C371.444 138.366 372.165 138.146 372.687 137.707C373.209 137.268 373.47 136.671 373.47 135.917C373.47 135.031 373.209 134.335 372.687 133.829C372.165 133.315 371.444 133.059 370.524 133.059H364.894V138.366ZM364.894 130.337H369.356C370.052 130.337 370.649 130.237 371.146 130.038C371.651 129.839 372.037 129.558 372.302 129.193C372.575 128.82 372.712 128.381 372.712 127.876C372.712 127.138 372.409 126.562 371.805 126.148C371.2 125.734 370.371 125.527 369.319 125.527H364.894V130.337ZM389.267 141.858C387.478 141.858 385.916 141.448 384.582 140.628C383.248 139.808 382.212 138.66 381.474 137.185C380.737 135.71 380.368 133.987 380.368 132.015C380.368 130.034 380.737 128.302 381.474 126.819C382.212 125.336 383.248 124.184 384.582 123.364C385.916 122.544 387.478 122.134 389.267 122.134C391.057 122.134 392.619 122.544 393.953 123.364C395.287 124.184 396.323 125.336 397.06 126.819C397.798 128.302 398.166 130.034 398.166 132.015C398.166 133.987 397.798 135.71 397.06 137.185C396.323 138.66 395.287 139.808 393.953 140.628C392.619 141.448 391.057 141.858 389.267 141.858ZM389.28 138.739C390.44 138.739 391.401 138.432 392.163 137.819C392.926 137.206 393.489 136.39 393.854 135.37C394.226 134.351 394.413 133.228 394.413 132.002C394.413 130.784 394.226 129.665 393.854 128.646C393.489 127.619 392.926 126.794 392.163 126.173C391.401 125.551 390.44 125.241 389.28 125.241C388.111 125.241 387.142 125.551 386.371 126.173C385.609 126.794 385.041 127.619 384.669 128.646C384.304 129.665 384.122 130.784 384.122 132.002C384.122 133.228 384.304 134.351 384.669 135.37C385.041 136.39 385.609 137.206 386.371 137.819C387.142 138.432 388.111 138.739 389.28 138.739ZM422.291 136.874L428.456 122.382H431.663L423.671 141.473H420.912L413.081 122.382H416.251L422.291 136.874ZM415.219 122.382V141.473H411.577V122.382H415.219ZM429.463 141.473V122.382H433.079V141.473H429.463ZM446.26 141.858C444.379 141.858 442.76 141.456 441.401 140.653C440.05 139.841 439.006 138.701 438.269 137.235C437.539 135.76 437.175 134.032 437.175 132.052C437.175 130.096 437.539 128.373 438.269 126.881C439.006 125.39 440.033 124.226 441.351 123.389C442.677 122.552 444.226 122.134 445.999 122.134C447.077 122.134 448.121 122.312 449.132 122.668C450.142 123.024 451.05 123.584 451.853 124.346C452.657 125.108 453.291 126.098 453.755 127.316C454.219 128.526 454.451 129.997 454.451 131.729V133.046H439.275V130.262H450.809C450.809 129.284 450.611 128.418 450.213 127.664C449.815 126.902 449.256 126.301 448.535 125.862C447.822 125.423 446.985 125.203 446.024 125.203C444.98 125.203 444.069 125.46 443.29 125.974C442.519 126.48 441.923 127.142 441.5 127.963C441.086 128.775 440.879 129.657 440.879 130.61V132.785C440.879 134.061 441.102 135.147 441.55 136.042C442.006 136.936 442.639 137.62 443.451 138.092C444.263 138.556 445.212 138.788 446.298 138.788C447.002 138.788 447.644 138.689 448.224 138.49C448.804 138.283 449.306 137.976 449.728 137.57C450.151 137.164 450.474 136.663 450.698 136.066L454.215 136.7C453.933 137.736 453.428 138.643 452.699 139.422C451.978 140.193 451.07 140.794 449.977 141.224C448.891 141.647 447.652 141.858 446.26 141.858ZM473.303 115.273L474.844 117.622C474.272 118.144 473.622 118.517 472.893 118.74C472.172 118.956 471.339 119.093 470.394 119.151C469.45 119.2 468.368 119.246 467.15 119.287C465.775 119.329 464.644 119.627 463.757 120.182C462.871 120.729 462.187 121.541 461.707 122.618C461.234 123.687 460.928 125.029 460.787 126.645H461.023C461.644 125.46 462.506 124.574 463.608 123.985C464.718 123.397 465.966 123.103 467.349 123.103C468.89 123.103 470.262 123.455 471.463 124.159C472.665 124.864 473.609 125.895 474.297 127.254C474.993 128.605 475.341 130.258 475.341 132.213C475.341 134.194 474.977 135.905 474.247 137.347C473.526 138.788 472.507 139.903 471.19 140.69C469.881 141.469 468.335 141.858 466.554 141.858C464.772 141.858 463.219 141.456 461.893 140.653C460.575 139.841 459.552 138.639 458.823 137.048C458.102 135.457 457.742 133.494 457.742 131.157V129.268C457.742 124.901 458.521 121.616 460.078 119.412C461.636 117.207 463.964 116.076 467.063 116.018C468.066 115.994 468.961 115.989 469.748 116.006C470.535 116.014 471.223 115.977 471.811 115.894C472.408 115.803 472.905 115.596 473.303 115.273ZM466.566 138.739C467.602 138.739 468.493 138.478 469.238 137.956C469.993 137.425 470.573 136.675 470.979 135.706C471.385 134.736 471.588 133.593 471.588 132.276C471.588 130.983 471.385 129.885 470.979 128.982C470.573 128.079 469.993 127.391 469.238 126.919C468.484 126.438 467.581 126.198 466.529 126.198C465.75 126.198 465.054 126.335 464.441 126.608C463.828 126.873 463.302 127.267 462.862 127.789C462.432 128.311 462.096 128.949 461.856 129.703C461.624 130.448 461.499 131.306 461.483 132.276C461.483 134.248 461.934 135.818 462.838 136.986C463.749 138.154 464.992 138.739 466.566 138.739ZM487.72 141.858C485.839 141.858 484.22 141.456 482.861 140.653C481.51 139.841 480.466 138.701 479.729 137.235C478.999 135.76 478.635 134.032 478.635 132.052C478.635 130.096 478.999 128.373 479.729 126.881C480.466 125.39 481.493 124.226 482.811 123.389C484.137 122.552 485.686 122.134 487.459 122.134C488.537 122.134 489.581 122.312 490.591 122.668C491.602 123.024 492.51 123.584 493.313 124.346C494.117 125.108 494.751 126.098 495.215 127.316C495.679 128.526 495.911 129.997 495.911 131.729V133.046H480.735V130.262H492.269C492.269 129.284 492.071 128.418 491.673 127.664C491.275 126.902 490.716 126.301 489.995 125.862C489.282 125.423 488.445 125.203 487.484 125.203C486.44 125.203 485.529 125.46 484.75 125.974C483.979 126.48 483.383 127.142 482.96 127.963C482.546 128.775 482.339 129.657 482.339 130.61V132.785C482.339 134.061 482.562 135.147 483.01 136.042C483.466 136.936 484.099 137.62 484.911 138.092C485.723 138.556 486.672 138.788 487.758 138.788C488.462 138.788 489.104 138.689 489.684 138.49C490.264 138.283 490.765 137.976 491.188 137.57C491.611 137.164 491.934 136.663 492.158 136.066L495.675 136.7C495.393 137.736 494.888 138.643 494.159 139.422C493.438 140.193 492.53 140.794 491.437 141.224C490.351 141.647 489.112 141.858 487.72 141.858ZM498.53 141.473L498.518 138.254H499.202C499.732 138.254 500.175 138.142 500.532 137.918C500.896 137.686 501.194 137.297 501.426 136.75C501.658 136.203 501.837 135.449 501.961 134.488C502.085 133.518 502.176 132.3 502.234 130.834L502.57 122.382H515.894V141.473H512.252V125.589H506.013L505.714 132.077C505.64 133.651 505.478 135.027 505.23 136.203C504.989 137.38 504.637 138.362 504.173 139.149C503.709 139.928 503.113 140.512 502.383 140.901C501.654 141.282 500.768 141.473 499.724 141.473H498.53ZM524.492 136.265L532.906 122.382H536.908V141.473H533.266V127.577L524.889 141.473H520.85V122.382H524.492V136.265ZM554.809 136.265L563.223 122.382H567.225V141.473H563.584V127.577L555.207 141.473H551.167V122.382H554.809V136.265ZM592.198 136.874L598.363 122.382H601.57L593.578 141.473H590.819L582.988 122.382H586.158L592.198 136.874ZM585.126 122.382V141.473H581.485V122.382H585.126ZM599.37 141.473V122.382H602.987V141.473H599.37ZM613.495 141.896C612.286 141.896 611.192 141.672 610.214 141.224C609.236 140.769 608.462 140.11 607.89 139.248C607.326 138.386 607.045 137.33 607.045 136.079C607.045 135.002 607.252 134.115 607.666 133.419C608.081 132.723 608.64 132.172 609.344 131.766C610.048 131.36 610.836 131.053 611.706 130.846C612.576 130.639 613.462 130.482 614.365 130.374C615.509 130.241 616.437 130.134 617.15 130.051C617.862 129.96 618.38 129.815 618.703 129.616C619.026 129.417 619.188 129.094 619.188 128.646V128.559C619.188 127.474 618.881 126.633 618.268 126.036C617.663 125.44 616.76 125.141 615.559 125.141C614.307 125.141 613.321 125.419 612.601 125.974C611.888 126.521 611.395 127.13 611.121 127.801L607.629 127.006C608.043 125.846 608.648 124.909 609.444 124.197C610.247 123.476 611.171 122.954 612.215 122.631C613.259 122.299 614.357 122.134 615.509 122.134C616.271 122.134 617.079 122.225 617.933 122.407C618.794 122.581 619.598 122.904 620.344 123.376C621.098 123.849 621.715 124.524 622.196 125.402C622.676 126.272 622.917 127.403 622.917 128.795V141.473H619.287V138.863H619.138C618.898 139.344 618.537 139.816 618.057 140.28C617.576 140.744 616.959 141.129 616.205 141.436C615.451 141.742 614.548 141.896 613.495 141.896ZM614.303 138.913C615.331 138.913 616.209 138.71 616.938 138.304C617.676 137.898 618.235 137.367 618.616 136.713C619.006 136.05 619.2 135.341 619.2 134.587V132.126C619.068 132.259 618.811 132.383 618.43 132.499C618.057 132.607 617.63 132.702 617.15 132.785C616.669 132.86 616.201 132.93 615.745 132.996C615.289 133.054 614.908 133.104 614.602 133.146C613.881 133.237 613.222 133.39 612.625 133.605C612.037 133.821 611.565 134.132 611.208 134.538C610.86 134.935 610.686 135.466 610.686 136.129C610.686 137.048 611.026 137.744 611.706 138.217C612.385 138.681 613.251 138.913 614.303 138.913ZM635.908 141.858C634.06 141.858 632.469 141.44 631.135 140.603C629.809 139.758 628.79 138.594 628.078 137.11C627.365 135.627 627.009 133.929 627.009 132.015C627.009 130.076 627.373 128.365 628.103 126.881C628.832 125.39 629.859 124.226 631.185 123.389C632.511 122.552 634.073 122.134 635.871 122.134C637.321 122.134 638.613 122.403 639.749 122.941C640.884 123.472 641.799 124.217 642.495 125.179C643.2 126.14 643.618 127.263 643.751 128.547H640.134C639.935 127.652 639.479 126.881 638.767 126.235C638.062 125.589 637.118 125.266 635.933 125.266C634.897 125.266 633.99 125.539 633.211 126.086C632.44 126.625 631.84 127.395 631.409 128.398C630.978 129.392 630.762 130.569 630.762 131.928C630.762 133.32 630.974 134.521 631.396 135.532C631.819 136.543 632.415 137.326 633.186 137.881C633.965 138.436 634.88 138.714 635.933 138.714C636.637 138.714 637.275 138.585 637.847 138.328C638.427 138.063 638.912 137.686 639.301 137.197C639.699 136.709 639.976 136.12 640.134 135.433H643.751C643.618 136.667 643.216 137.769 642.545 138.739C641.874 139.708 640.975 140.47 639.848 141.026C638.729 141.581 637.416 141.858 635.908 141.858ZM646.28 125.589V122.382H662.388V125.589H656.161V141.473H652.532V125.589H646.28ZM673.658 141.858C671.777 141.858 670.157 141.456 668.798 140.653C667.448 139.841 666.403 138.701 665.666 137.235C664.937 135.76 664.572 134.032 664.572 132.052C664.572 130.096 664.937 128.373 665.666 126.881C666.403 125.39 667.431 124.226 668.748 123.389C670.074 122.552 671.624 122.134 673.397 122.134C674.474 122.134 675.518 122.312 676.529 122.668C677.54 123.024 678.447 123.584 679.251 124.346C680.055 125.108 680.689 126.098 681.153 127.316C681.617 128.526 681.849 129.997 681.849 131.729V133.046H666.673V130.262H678.207C678.207 129.284 678.008 128.418 677.61 127.664C677.213 126.902 676.653 126.301 675.932 125.862C675.22 125.423 674.383 125.203 673.422 125.203C672.378 125.203 671.466 125.46 670.687 125.974C669.917 126.48 669.32 127.142 668.898 127.963C668.483 128.775 668.276 129.657 668.276 130.61V132.785C668.276 134.061 668.5 135.147 668.947 136.042C669.403 136.936 670.037 137.62 670.849 138.092C671.661 138.556 672.61 138.788 673.695 138.788C674.399 138.788 675.042 138.689 675.622 138.49C676.202 138.283 676.703 137.976 677.126 137.57C677.548 137.164 677.871 136.663 678.095 136.066L681.612 136.7C681.331 137.736 680.825 138.643 680.096 139.422C679.375 140.193 678.468 140.794 677.374 141.224C676.289 141.647 675.05 141.858 673.658 141.858ZM685.972 148.632V122.382H689.601V125.477H689.912C690.127 125.079 690.438 124.619 690.844 124.097C691.25 123.575 691.814 123.12 692.534 122.73C693.255 122.332 694.208 122.134 695.393 122.134C696.934 122.134 698.31 122.523 699.519 123.302C700.729 124.081 701.678 125.203 702.366 126.67C703.062 128.137 703.41 129.902 703.41 131.965C703.41 134.028 703.066 135.797 702.378 137.272C701.69 138.739 700.746 139.87 699.544 140.665C698.343 141.452 696.972 141.846 695.43 141.846C694.27 141.846 693.322 141.651 692.584 141.262C691.855 140.872 691.283 140.417 690.869 139.895C690.455 139.373 690.136 138.908 689.912 138.502H689.688V148.632H685.972ZM689.614 131.928C689.614 133.27 689.808 134.446 690.198 135.457C690.587 136.468 691.151 137.26 691.888 137.831C692.626 138.395 693.529 138.676 694.598 138.676C695.708 138.676 696.636 138.382 697.382 137.794C698.127 137.197 698.691 136.39 699.072 135.37C699.461 134.351 699.656 133.204 699.656 131.928C699.656 130.668 699.466 129.537 699.084 128.534C698.712 127.532 698.148 126.741 697.394 126.161C696.648 125.58 695.716 125.29 694.598 125.29C693.52 125.29 692.609 125.568 691.863 126.123C691.126 126.678 690.566 127.453 690.185 128.447C689.804 129.442 689.614 130.602 689.614 131.928ZM715.615 141.858C713.825 141.858 712.263 141.448 710.929 140.628C709.595 139.808 708.559 138.66 707.822 137.185C707.085 135.71 706.716 133.987 706.716 132.015C706.716 130.034 707.085 128.302 707.822 126.819C708.559 125.336 709.595 124.184 710.929 123.364C712.263 122.544 713.825 122.134 715.615 122.134C717.405 122.134 718.967 122.544 720.301 123.364C721.635 124.184 722.671 125.336 723.408 126.819C724.145 128.302 724.514 130.034 724.514 132.015C724.514 133.987 724.145 135.71 723.408 137.185C722.671 138.66 721.635 139.808 720.301 140.628C718.967 141.448 717.405 141.858 715.615 141.858ZM715.627 138.739C716.787 138.739 717.749 138.432 718.511 137.819C719.273 137.206 719.837 136.39 720.201 135.37C720.574 134.351 720.761 133.228 720.761 132.002C720.761 130.784 720.574 129.665 720.201 128.646C719.837 127.619 719.273 126.794 718.511 126.173C717.749 125.551 716.787 125.241 715.627 125.241C714.459 125.241 713.49 125.551 712.719 126.173C711.957 126.794 711.389 127.619 711.016 128.646C710.652 129.665 710.469 130.784 710.469 132.002C710.469 133.228 710.652 134.351 711.016 135.37C711.389 136.39 711.957 137.206 712.719 137.819C713.49 138.432 714.459 138.739 715.627 138.739ZM728.662 141.473V122.382H736.58C738.734 122.382 740.441 122.842 741.7 123.762C742.96 124.673 743.59 125.912 743.59 127.478C743.59 128.597 743.233 129.483 742.521 130.138C741.808 130.792 740.863 131.232 739.687 131.455C740.54 131.555 741.323 131.812 742.036 132.226C742.748 132.632 743.32 133.179 743.751 133.866C744.19 134.554 744.41 135.375 744.41 136.327C744.41 137.338 744.149 138.233 743.627 139.012C743.105 139.783 742.347 140.388 741.352 140.827C740.366 141.258 739.177 141.473 737.785 141.473H728.662ZM732.155 138.366H737.785C738.705 138.366 739.426 138.146 739.948 137.707C740.47 137.268 740.731 136.671 740.731 135.917C740.731 135.031 740.47 134.335 739.948 133.829C739.426 133.315 738.705 133.059 737.785 133.059H732.155V138.366ZM732.155 130.337H736.617C737.313 130.337 737.909 130.237 738.407 130.038C738.912 129.839 739.297 129.558 739.563 129.193C739.836 128.82 739.973 128.381 739.973 127.876C739.973 127.138 739.67 126.562 739.065 126.148C738.46 125.734 737.632 125.527 736.58 125.527H732.155V130.337Z" fill="white"/>
<path d="M155.674 10.7461H171.796L193.387 63.4454H194.24L215.831 10.7461H231.953V83.4734H219.311V33.5094H218.636L198.537 83.2604H189.09L168.991 33.4024H168.316V83.4734H155.674V10.7461ZM269.879 84.5384C264.41 84.5384 259.687 83.4024 255.71 81.1294C251.756 78.8334 248.714 75.5894 246.583 71.3994C244.453 67.1854 243.387 62.2254 243.387 56.5204C243.387 50.9094 244.453 45.9854 246.583 41.7474C248.738 37.4864 251.744 34.1714 255.603 31.8044C259.462 29.4134 263.996 28.2174 269.204 28.2174C272.566 28.2174 275.738 28.7624 278.721 29.8514C281.728 30.9164 284.379 32.5734 286.676 34.8224C288.996 37.0714 290.819 39.9364 292.144 43.4164C293.47 46.8734 294.133 50.9924 294.133 55.7744V59.7164H249.424V51.0514H281.811C281.787 48.5894 281.254 46.3994 280.213 44.4824C279.171 42.5404 277.715 41.0134 275.845 39.9014C273.998 38.7884 271.844 38.2324 269.382 38.2324C266.754 38.2324 264.446 38.8714 262.457 40.1494C260.468 41.4044 258.918 43.0614 257.805 45.1214C256.716 47.1574 256.16 49.3944 256.136 51.8324V59.3964C256.136 62.5694 256.716 65.2914 257.876 67.5644C259.036 69.8134 260.658 71.5414 262.741 72.7494C264.824 73.9324 267.263 74.5244 270.056 74.5244C271.927 74.5244 273.619 74.2644 275.135 73.7434C276.65 73.1984 277.964 72.4054 279.076 71.3644C280.189 70.3224 281.029 69.0324 281.598 67.4934L293.6 68.8424C292.843 72.0154 291.399 74.7854 289.268 77.1524C287.161 79.4964 284.462 81.3194 281.171 82.6214C277.881 83.8994 274.117 84.5384 269.879 84.5384ZM305.577 83.4734V10.7461H318.432V37.9474H318.964C319.627 36.6224 320.562 35.2134 321.77 33.7224C322.977 32.2064 324.611 30.9164 326.67 29.8514C328.73 28.7624 331.358 28.2174 334.554 28.2174C338.768 28.2174 342.568 29.2944 345.953 31.4494C349.362 33.5804 352.061 36.7404 354.05 40.9304C356.062 45.0974 357.068 50.2114 357.068 56.2714C357.068 62.2614 356.086 67.3514 354.121 71.5414C352.156 75.7324 349.481 78.9284 346.095 81.1294C342.71 83.3314 338.874 84.4324 334.589 84.4324C331.464 84.4324 328.872 83.9114 326.812 82.8694C324.753 81.8284 323.096 80.5734 321.841 79.1054C320.61 77.6144 319.651 76.2054 318.964 74.8794H318.219V83.4734H305.577ZM318.183 56.2004C318.183 59.7284 318.68 62.8174 319.675 65.4694C320.693 68.1204 322.149 70.1924 324.043 71.6834C325.96 73.1514 328.28 73.8854 331.003 73.8854C333.844 73.8854 336.223 73.1274 338.141 71.6124C340.058 70.0734 341.502 67.9784 342.473 65.3274C343.467 62.6524 343.964 59.6094 343.964 56.2004C343.964 52.8154 343.479 49.8084 342.508 47.1804C341.538 44.5534 340.094 42.4934 338.176 41.0014C336.258 39.5104 333.867 38.7644 331.003 38.7644C328.257 38.7644 325.925 39.4864 324.007 40.9304C322.089 42.3754 320.633 44.3994 319.639 47.0034C318.668 49.6074 318.183 52.6734 318.183 56.2004ZM392.144 84.5384C386.676 84.5384 381.953 83.4024 377.975 81.1294C374.022 78.8334 370.98 75.5894 368.849 71.3994C366.718 67.1854 365.653 62.2254 365.653 56.5204C365.653 50.9094 366.718 45.9854 368.849 41.7474C371.003 37.4864 374.01 34.1714 377.869 31.8044C381.728 29.4134 386.261 28.2174 391.47 28.2174C394.831 28.2174 398.004 28.7624 400.987 29.8514C403.993 30.9164 406.645 32.5734 408.941 34.8224C411.261 37.0714 413.084 39.9364 414.41 43.4164C415.736 46.8734 416.399 50.9924 416.399 55.7744V59.7164H371.69V51.0514H404.076C404.053 48.5894 403.52 46.3994 402.478 44.4824C401.437 42.5404 399.981 41.0134 398.11 39.9014C396.264 38.7884 394.109 38.2324 391.647 38.2324C389.019 38.2324 386.711 38.8714 384.723 40.1494C382.734 41.4044 381.183 43.0614 380.071 45.1214C378.982 47.1574 378.425 49.3944 378.402 51.8324V59.3964C378.402 62.5694 378.982 65.2914 380.142 67.5644C381.302 69.8134 382.923 71.5414 385.007 72.7494C387.09 73.9324 389.528 74.5244 392.322 74.5244C394.192 74.5244 395.885 74.2644 397.4 73.7434C398.915 73.1984 400.229 72.4054 401.342 71.3644C402.455 70.3224 403.295 69.0324 403.863 67.4934L415.866 68.8424C415.108 72.0154 413.664 74.7854 411.534 77.1524C409.427 79.4964 406.728 81.3194 403.437 82.6214C400.146 83.8994 396.382 84.5384 392.144 84.5384ZM440.129 10.7461V83.4734H427.274V10.7461H440.129Z" fill="white"/>
<path d="M493.439 30.7396C493.107 27.6376 491.71 25.2236 489.248 23.4946C486.81 21.7666 483.637 20.9026 479.731 20.9026C476.985 20.9026 474.629 21.3166 472.664 22.1456C470.7 22.9736 469.196 24.0986 468.155 25.5186C467.113 26.9396 466.58 28.5616 466.557 30.3846C466.557 31.8996 466.9 33.2136 467.586 34.3256C468.297 35.4386 469.255 36.3856 470.463 37.1666C471.67 37.9246 473.008 38.5636 474.476 39.0846C475.943 39.6056 477.423 40.0436 478.914 40.3986L485.733 42.1026C488.479 42.7416 491.119 43.6066 493.652 44.6956C496.209 45.7846 498.493 47.1576 500.505 48.8146C502.541 50.4716 504.151 52.4726 505.335 54.8156C506.519 57.1596 507.111 59.9056 507.111 63.0546C507.111 67.3156 506.021 71.0686 503.843 74.3116C501.665 77.5316 498.517 80.0525 494.397 81.8755C490.302 83.6745 485.342 84.5746 479.518 84.5746C473.86 84.5746 468.948 83.6986 464.781 81.9466C460.638 80.1946 457.395 77.6376 455.051 74.2766C452.731 70.9146 451.476 66.8186 451.287 61.9896H464.248C464.438 64.5226 465.219 66.6296 466.592 68.3106C467.965 69.9916 469.753 71.2456 471.954 72.0746C474.18 72.9026 476.665 73.3176 479.412 73.3176C482.276 73.3176 484.786 72.8916 486.94 72.0386C489.118 71.1626 490.823 69.9555 492.054 68.4165C493.285 66.8545 493.912 65.0316 493.936 62.9476C493.912 61.0536 493.356 59.4916 492.267 58.2606C491.178 57.0056 489.651 55.9646 487.686 55.1356C485.745 54.2836 483.472 53.5256 480.868 52.8626L472.593 50.7326C466.604 49.1936 461.869 46.8616 458.389 43.7366C454.932 40.5876 453.204 36.4096 453.204 31.2006C453.204 26.9156 454.364 23.1636 456.684 19.9436C459.028 16.7236 462.212 14.2264 466.237 12.4509C470.262 10.6516 474.819 9.75195 479.909 9.75195C485.07 9.75195 489.592 10.6516 493.474 12.4509C497.38 14.2264 500.446 16.7006 502.672 19.8726C504.897 23.0216 506.045 26.6436 506.116 30.7396H493.439ZM518.288 103.929V28.9286H530.93V37.9476H531.675C532.338 36.6226 533.274 35.2136 534.481 33.7226C535.688 32.2066 537.322 30.9166 539.381 29.8516C541.441 28.7626 544.069 28.2176 547.265 28.2176C551.479 28.2176 555.279 29.2946 558.664 31.4496C562.073 33.5806 564.772 36.7406 566.761 40.9306C568.773 45.0976 569.779 50.2116 569.779 56.2716C569.779 62.2616 568.797 67.3515 566.832 71.5415C564.867 75.7325 562.192 78.9286 558.806 81.1296C555.421 83.3316 551.586 84.4326 547.3 84.4326C544.175 84.4326 541.583 83.9116 539.524 82.8696C537.464 81.8286 535.807 80.5736 534.552 79.1056C533.321 77.6146 532.362 76.2056 531.675 74.8796H531.143V103.929H518.288ZM530.894 56.2006C530.894 59.7286 531.391 62.8176 532.386 65.4696C533.404 68.1206 534.86 70.1926 536.754 71.6836C538.671 73.1516 540.991 73.8856 543.714 73.8856C546.555 73.8856 548.934 73.1276 550.852 71.6126C552.769 70.0736 554.213 67.9786 555.184 65.3276C556.178 62.6526 556.675 59.6096 556.675 56.2006C556.675 52.8156 556.19 49.8086 555.22 47.1806C554.249 44.5536 552.805 42.4936 550.887 41.0016C548.97 39.5106 546.578 38.7646 543.714 38.7646C540.968 38.7646 538.636 39.4866 536.718 40.9306C534.8 42.3756 533.345 44.3996 532.35 47.0036C531.38 49.6076 530.894 52.6736 530.894 56.2006ZM596.484 84.5746C593.027 84.5746 589.914 83.9586 587.144 82.7276C584.398 81.4736 582.22 79.6266 580.61 77.1876C579.024 74.7496 578.231 71.7426 578.231 68.1686C578.231 65.0906 578.799 62.5456 579.935 60.5336C581.072 58.5206 582.622 56.9116 584.587 55.7036C586.552 54.4966 588.766 53.5846 591.228 52.9696C593.714 52.3306 596.282 51.8685 598.934 51.5845C602.13 51.2525 604.722 50.9566 606.711 50.6966C608.7 50.4126 610.144 49.9866 611.043 49.4186C611.967 48.8266 612.428 47.9146 612.428 46.6836V46.4706C612.428 43.7956 611.635 41.7236 610.049 40.2566C608.463 38.7886 606.178 38.0546 603.195 38.0546C600.047 38.0546 597.549 38.7416 595.702 40.1146C593.88 41.4876 592.649 43.1086 592.009 44.9796L580.006 43.2746C580.953 39.9606 582.516 37.1906 584.694 34.9646C586.872 32.7156 589.535 31.0356 592.684 29.9226C595.833 28.7856 599.313 28.2176 603.124 28.2176C605.752 28.2176 608.368 28.5256 610.972 29.1416C613.577 29.7566 615.956 30.7746 618.11 32.1956C620.265 33.5916 621.993 35.4976 623.295 37.9126C624.621 40.3276 625.283 43.3456 625.283 46.9676V83.4736H612.925V75.9806H612.499C611.718 77.4956 610.617 78.9166 609.197 80.2416C607.8 81.5446 606.036 82.5976 603.906 83.4026C601.799 84.1836 599.325 84.5746 596.484 84.5746ZM599.822 75.1286C602.402 75.1286 604.64 74.6196 606.533 73.6016C608.427 72.5596 609.883 71.1866 610.901 69.4826C611.943 67.7776 612.464 65.9196 612.464 63.9066V57.4796C612.061 57.8106 611.375 58.1186 610.404 58.4026C609.457 58.6866 608.392 58.9356 607.208 59.1486C606.024 59.3616 604.853 59.5506 603.693 59.7166C602.532 59.8826 601.526 60.0246 600.674 60.1426C598.756 60.4026 597.04 60.8296 595.525 61.4206C594.01 62.0126 592.814 62.8416 591.938 63.9066C591.062 64.9486 590.624 66.2976 590.624 67.9556C590.624 70.3226 591.488 72.1096 593.217 73.3176C594.945 74.5246 597.147 75.1286 599.822 75.1286ZM662.002 84.5386C656.557 84.5386 651.881 83.3436 647.975 80.9526C644.093 78.5616 641.098 75.2586 638.991 71.0446C636.907 66.8066 635.866 61.9296 635.866 56.4136C635.866 50.8746 636.931 45.9856 639.062 41.7476C641.193 37.4866 644.199 34.1716 648.082 31.8046C651.988 29.4136 656.604 28.2176 661.931 28.2176C666.358 28.2176 670.276 29.0346 673.685 30.6686C677.118 32.2776 679.853 34.5626 681.889 37.5216C683.925 40.4576 685.085 43.8906 685.369 47.8206H673.082C672.585 45.1926 671.401 43.0026 669.531 41.2506C667.684 39.4746 665.21 38.5876 662.109 38.5876C659.481 38.5876 657.173 39.2976 655.184 40.7176C653.195 42.1146 651.645 44.1266 650.532 46.7546C649.443 49.3826 648.899 52.5316 648.899 56.2006C648.899 59.9176 649.443 63.1136 650.532 65.7886C651.621 68.4406 653.148 70.4886 655.113 71.9326C657.102 73.3526 659.434 74.0626 662.109 74.0626C664.003 74.0626 665.695 73.7076 667.187 72.9976C668.702 72.2636 669.969 71.2106 670.987 69.8376C672.005 68.4646 672.703 66.7946 673.082 64.8306H685.369C685.061 68.6886 683.925 72.1096 681.96 75.0926C679.995 78.0526 677.319 80.3726 673.934 82.0536C670.549 83.7106 666.571 84.5386 662.002 84.5386ZM720.072 84.5386C714.603 84.5386 709.88 83.4026 705.903 81.1296C701.95 78.8336 698.907 75.5896 696.777 71.3996C694.646 67.1856 693.581 62.2256 693.581 56.5206C693.581 50.9096 694.646 45.9856 696.777 41.7476C698.931 37.4866 701.938 34.1716 705.797 31.8046C709.655 29.4136 714.189 28.2176 719.397 28.2176C722.759 28.2176 725.932 28.7626 728.914 29.8516C731.921 30.9166 734.573 32.5736 736.869 34.8226C739.189 37.0716 741.012 39.9366 742.338 43.4166C743.664 46.8736 744.326 50.9926 744.326 55.7746V59.7166H699.618V51.0516H732.004C731.98 48.5896 731.448 46.3996 730.406 44.4826C729.364 42.5406 727.908 41.0136 726.038 39.9016C724.191 38.7886 722.037 38.2326 719.575 38.2326C716.947 38.2326 714.639 38.8716 712.65 40.1496C710.662 41.4046 709.111 43.0616 707.998 45.1216C706.909 47.1576 706.353 49.3946 706.329 51.8326V59.3966C706.329 62.5696 706.909 65.2916 708.069 67.5646C709.229 69.8136 710.851 71.5416 712.934 72.7496C715.018 73.9326 717.456 74.5246 720.25 74.5246C722.12 74.5246 723.813 74.2646 725.328 73.7436C726.843 73.1986 728.157 72.4056 729.27 71.3646C730.382 70.3226 731.223 69.0326 731.791 67.4936L743.794 68.8426C743.036 72.0156 741.592 74.7856 739.461 77.1526C737.354 79.4966 734.655 81.3196 731.365 82.6216C728.074 83.8996 724.31 84.5386 720.072 84.5386Z" fill="#F8C261"/>
<path d="M61.466 148.419C61.1749 148.366 60.6515 148.214 60.3024 148.079C59.6495 147.829 53.1565 144.015 50.1472 142.114C46.5979 139.872 31.8195 131.03 28.0384 128.887C27.0495 128.326 25.3358 127.275 24.2302 126.551C23.1245 125.827 21.3161 124.732 20.2104 124.119C19.1048 123.505 17.9627 122.837 17.6716 122.636C16.7378 121.989 11.4922 118.901 9.52627 117.841C8.47901 117.275 6.86052 116.325 5.92963 115.729C4.99873 115.133 3.54231 114.228 2.69308 113.719C1.81423 113.192 1.02 112.543 0.849896 112.213C0.596438 111.721 0.545237 106.036 0.512233 74.6707C0.47669 40.5813 0.501234 37.6663 0.824509 37.1708C1.01704 36.8755 2.03087 36.1164 3.07728 35.4846C4.12369 34.8529 5.38421 34.0811 5.87759 33.7692C6.37181 33.4574 7.96575 32.5362 9.42049 31.7221C10.8752 30.908 13.1123 29.5751 14.3923 28.7602C15.6723 27.9448 17.7668 26.7046 19.0468 26.0043C20.3268 25.3036 22.6595 23.8962 24.2302 22.8773C25.8009 21.858 29.1809 19.7762 31.7408 18.2508C34.3008 16.7254 36.5379 15.3553 36.7127 15.2059C36.8874 15.0565 37.4692 14.6901 38.0066 14.3914C38.5436 14.0926 40.6855 12.8025 42.7669 11.5246C44.8479 10.2463 47.1569 8.83222 47.8982 8.38116C50.6638 6.6975 53.1447 5.11202 54.2727 4.30595C55.8747 3.16137 60.4806 0.937794 61.8676 0.639484C62.7469 0.44992 63.2085 0.452884 63.8775 0.652604C65.1617 1.03554 68.4486 2.82201 71.0923 4.57379C72.3723 5.42175 74.0382 6.48255 74.7948 6.93149C77.3619 8.45435 83.3603 12.2012 83.998 12.6802C84.347 12.9425 87.108 14.5843 90.1334 16.3289C98.9376 21.4057 99.8274 21.9308 100.553 22.4736C100.93 22.7563 102.65 23.8201 104.373 24.8369C106.097 25.8541 109.644 27.9681 112.254 29.5358C114.866 31.1031 118.136 33.0596 119.52 33.8835C120.904 34.7073 122.491 35.8257 123.046 36.3685C124.265 37.5609 124.427 38.254 124.345 41.9328C124.314 43.3063 124.29 45.075 124.292 45.8641C124.294 46.6532 124.299 51.554 124.303 56.7547C124.307 61.9559 124.322 67.2629 124.335 68.5488C124.362 71.1527 124.286 99.1029 124.231 106.935C124.19 112.704 124.37 112.167 121.924 113.805C121.079 114.37 119.833 115.212 119.156 115.675C118.478 116.137 117.112 116.935 116.12 117.448C113.364 118.873 110.79 120.299 109.386 121.181C108.688 121.62 106.927 122.667 105.472 123.508C104.017 124.35 102.351 125.341 101.77 125.71C99.0235 127.452 95.9037 129.353 93.8447 130.539C93.4423 130.771 92.1556 131.604 90.9856 132.391C89.816 133.178 87.6699 134.492 86.2169 135.31C84.7638 136.129 82.9562 137.191 82.1996 137.672C81.4431 138.152 80.158 138.969 79.3435 139.487C78.5289 140.006 77.2913 140.74 76.5931 141.118C74.9433 142.013 74.1216 142.492 72.5733 143.458C71.8751 143.893 70.2567 144.903 68.9767 145.701C67.6967 146.499 66.1188 147.411 65.471 147.727C64.3095 148.294 62.5006 148.606 61.466 148.419ZM57.3934 134.052C57.585 133.81 57.7526 130.628 57.7433 127.411C57.7382 125.625 57.7475 101.313 57.7564 93.6237C57.7602 90.1176 57.6819 85.6383 57.5817 83.6699C57.4035 80.1735 57.3862 80.0758 56.8086 79.4153C56.4836 79.0438 55.328 78.2737 54.2402 77.7046C53.1527 77.135 51.2084 75.9706 49.9195 75.1162C48.6311 74.2615 46.6318 73.0475 45.4766 72.4179C44.3219 71.7883 42.5545 70.7558 41.5491 70.1237C38.5914 68.2636 30.4511 63.3679 26.5574 61.1079C23.6057 59.3947 19.9125 57.1461 17.989 55.8911C17.2908 55.4354 15.7675 54.5709 14.6039 53.9701C13.4403 53.3692 12.2259 52.6914 11.906 52.4637C11.5861 52.2365 11.1101 52.0808 10.8481 52.1185C10.4149 52.1802 10.3763 52.2902 10.4136 53.3549C10.4364 53.9976 10.5202 66.1885 10.6002 80.4452C10.7242 102.622 10.7898 106.435 11.0534 106.84C11.223 107.1 12.6625 108.038 14.2523 108.924C15.842 109.81 17.7613 110.926 18.5179 111.403C19.2744 111.88 20.1787 112.437 20.5278 112.639C22.3587 113.703 23.5574 114.445 24.6533 115.193C26.1631 116.222 27.6948 117.141 29.6607 118.194C30.9695 118.895 33.3128 120.263 37.9385 123.024C38.5546 123.392 39.1089 123.693 39.1698 123.693C39.2312 123.693 39.6788 123.965 40.1654 124.299C40.652 124.632 42.4779 125.696 44.2233 126.663C45.9687 127.63 47.7302 128.681 48.1373 128.999C48.5444 129.317 49.592 129.944 50.4645 130.394C51.337 130.844 52.84 131.719 53.8039 132.34C54.7682 132.96 55.6251 133.47 55.708 133.472C55.7914 133.475 56.0973 133.664 56.3884 133.893C57.0151 134.385 57.1166 134.401 57.3934 134.052ZM69.9105 133.223C70.7932 132.737 71.8011 132.127 72.1502 131.867C72.4993 131.606 73.6392 130.94 74.6835 130.387C75.7282 129.833 77.1085 129.023 77.7512 128.586C78.8988 127.805 85.0896 124.118 85.2517 124.118C85.2974 124.118 86.6049 123.337 88.1574 122.382C89.7094 121.428 91.5031 120.341 92.1433 119.967C92.7835 119.594 94.3542 118.639 95.6342 117.847C96.9141 117.055 98.7628 115.937 99.7424 115.364C100.722 114.79 101.769 114.149 102.07 113.938C102.37 113.728 103.378 113.16 104.308 112.676C105.239 112.193 107.096 111.082 108.434 110.208C109.772 109.335 111.468 108.273 112.204 107.85C114.594 106.474 114.373 109.196 114.276 82.3611C114.228 68.941 114.274 58.3978 114.385 57.6048C114.49 56.8453 114.504 55.3732 114.415 54.3336C114.203 51.879 113.982 51.7059 112.397 52.7625C111.766 53.1835 110.64 53.8368 109.895 54.2147C109.149 54.5925 107.87 55.3559 107.051 55.9106C104.845 57.4055 99.9383 60.3074 93.8358 63.7259C92.1209 64.6868 79.781 72.2702 76.0642 74.6474C73.4027 76.3501 69.2598 78.8551 69.1057 78.8551C68.7143 78.8551 67.8435 80.1063 67.7009 80.8738C67.56 81.6283 67.4733 87.1561 67.5571 90.011C67.6155 92.001 67.6172 93.1968 67.5647 95.7487C67.5359 97.1514 67.5241 98.992 67.5384 99.8391C67.5685 101.613 67.5685 101.59 67.5351 104.196C67.5211 105.277 67.5224 111.516 67.538 118.061C67.5532 124.606 67.5165 130.752 67.4555 131.719C67.3464 133.45 67.519 134.105 68.0855 134.105C68.2066 134.105 69.0279 133.708 69.9105 133.223ZM64.1788 69.9972C64.7229 69.6832 65.5019 69.175 65.909 68.8674C66.6973 68.272 67.86 67.5785 69.9888 66.4339C70.712 66.0451 73.3032 64.5074 75.7468 63.0163C78.1904 61.5256 80.761 59.971 81.4591 59.5622C84.2489 57.9281 87.7617 55.8213 91.9317 53.2816C93.8519 52.1121 96.1842 50.6988 97.1151 50.1411C101.514 47.505 107.22 43.993 108.901 42.8865C110.894 41.5744 111.107 41.2007 110.285 40.4658C109.481 39.7473 106.74 37.9638 104.626 36.7841C103.521 36.1671 102.281 35.4013 101.871 35.0818C101.462 34.7623 100.224 33.977 99.1208 33.3364C98.0177 32.6957 95.8254 31.3586 94.2488 30.3643C92.6726 29.3699 91.2903 28.5181 91.1769 28.4712C90.9314 28.37 86.4813 25.7229 83.7864 24.0756C82.7391 23.435 81.5493 22.7212 81.1431 22.4889C80.7364 22.2562 80.0222 21.8047 79.5563 21.4861C79.09 21.167 77.4732 20.2141 75.9626 19.3687C74.4525 18.5233 72.7447 17.484 72.1688 17.0592C71.5929 16.6344 70.0675 15.6713 68.7795 14.9186C67.4915 14.1662 65.7236 13.1325 64.8511 12.6214C63.9786 12.1098 63.0464 11.6355 62.7803 11.5669C62.0368 11.3753 58.5121 13.3107 53.7142 16.5451C52.3344 17.4752 50.7903 18.4475 50.2834 18.7052C49.7769 18.9629 48.7297 19.5794 47.9562 20.0757C45.9095 21.3896 43.3639 22.9357 41.7903 23.8213C39.8413 24.9185 39.287 25.2486 36.078 27.2225C34.5073 28.1885 32.984 29.1126 32.6929 29.276C32.4018 29.4393 31.4497 30.0414 30.5772 30.6139C29.7047 31.1864 28.181 32.1363 27.1921 32.7253C26.2033 33.3139 24.8501 34.2042 24.1858 34.7035C23.5214 35.2028 22.2364 35.9814 21.3296 36.4341C18.5217 37.8368 14.0013 40.7861 13.907 41.2773C13.8444 41.6036 14.3449 41.9417 19.9561 45.3623C21.085 46.0507 22.723 47.065 23.5955 47.6167C24.468 48.1685 25.8965 48.986 26.769 49.4337C27.6415 49.8813 29.5723 51.0454 31.0592 52.0211C32.5456 52.9965 34.5449 54.2578 35.5021 54.8248C38.2702 56.4649 42.4279 58.8772 43.6944 59.5779C45.5782 60.6201 52.8417 65.0275 53.9554 65.8039C54.3045 66.0472 55.4469 66.7077 56.4942 67.2718C57.5415 67.8358 58.8109 68.5788 59.3148 68.9232C61.9839 70.7461 62.6305 70.8891 64.1788 69.9972Z" fill="#FEFEFE" stroke="#FEFEFE"/>
</svg>
